<?xml version="1.0" encoding="UTF-8"?>
<svg width="140px" height="60px" viewBox="0 0 140 60" version="1.1" xmlns="http://www.w3.org/2000/svg" xmlns:xlink="http://www.w3.org/1999/xlink">
    <!-- Generator: sketchtool 60.1 (101010) - https://sketch.com -->
    <title>9085D190-5F2E-4BE3-92BD-D16B9141A5F9</title>
    <desc>Created with sketchtool.</desc>
    <g id="Dizajn" stroke="none" stroke-width="1" fill="none" fill-rule="evenodd">
        <g id="About-Us" transform="translate(-900.000000, -6812.000000)" fill="#000000" fill-rule="nonzero">
            <g id="logo-bornfight" transform="translate(900.000000, 6812.000000)">
                <path d="M15.454737,36.3578528 C12.981979,38.4528282 10.7152843,38.418519 7.6243369,38.418519 L0,38.418519 L0,14.4464702 L7.38392988,14.4464702 C10.2688141,14.4464702 12.981979,14.480814 15.0769545,16.7818527 C16.0729264,17.8808562 16.5193966,19.2546106 16.5193966,20.7313965 C16.5193966,22.7576843 15.5234247,24.543565 13.737544,25.5738808 C16.3476773,26.4668211 17.6870878,28.4244212 17.6870878,31.1375861 C17.652744,33.0608422 16.9658668,35.08713 15.454737,36.3578528 Z M8.24252638,19.8384562 L5.87280004,19.8384562 L5.87280004,23.5819369 L8.20818252,23.5819369 C9.54759305,23.5819369 10.6465966,23.2041545 10.6465966,21.6586808 C10.6465966,20.1132071 9.47890533,19.8384562 8.24252638,19.8384562 Z M8.92940357,28.6648282 L5.83845618,28.6648282 L5.83845618,33.0264984 L8.89505971,33.0264984 C10.4061895,33.0264984 11.7799439,32.5113405 11.7799439,30.7254598 C11.7799439,29.0426106 10.3718457,28.6648282 8.92940357,28.6648282 Z" id="Shape"></path>
                <path d="M27.9902458,39.00233 C22.4952282,39.00233 18.3052773,34.9497545 18.3052773,29.454737 C18.3052773,23.9597194 22.4952282,19.9071439 27.9902458,19.9071439 C33.4852634,19.9071439 37.6752143,23.9597194 37.6752143,29.454737 C37.6752143,34.9497545 33.4852634,39.00233 27.9902458,39.00233 Z M27.9902458,24.8870036 C25.483144,24.8870036 23.6972633,26.981979 23.6972633,29.4203931 C23.6972633,31.8588071 25.5174879,33.9537826 27.9902458,33.9537826 C30.4630037,33.9537826 32.2832283,31.8588071 32.2832283,29.4203931 C32.2832283,26.981979 30.4630037,24.8870036 27.9902458,24.8870036 Z" id="Shape"></path>
                <path d="M43.6853898,29.2486738 L43.6853898,38.4528282 L38.2934038,38.4528282 L38.2934038,20.4566457 L43.3419512,20.4566457 L43.3419512,23.066779 L43.4106389,23.066779 C44.3379231,21.2122106 45.849053,20.5253334 47.9096846,20.5253334 L47.9096846,25.9516632 C45.5399582,25.9860071 43.6853898,26.4668211 43.6853898,29.2486738 Z" id="Path"></path>
                <path d="M60.3421618,38.4184844 L60.3421618,28.6304843 C60.3421618,26.6041966 59.9643794,24.8870036 57.5259653,24.8870036 C55.0188636,24.8870036 54.4350179,26.501165 54.4350179,28.6304843 L54.4350179,38.4184844 L49.0430319,38.4184844 L49.0430319,20.4566457 L54.0572355,20.4566457 L54.0572355,22.3799018 L54.1259232,22.3799018 C55.2592706,20.5253334 56.8390881,19.8384562 59.0027513,19.8384562 C60.5138811,19.8384562 62.4371373,20.4223018 63.6048285,21.3839299 C65.3220215,22.826372 65.6654601,25.0930667 65.6654601,27.1880422 L65.6654601,38.4184844 C65.6654601,38.4184844 60.3421618,38.4184844 60.3421618,38.4184844 Z" id="Path"></path>
                <path d="M78.0979374,38.4184844 L78.0979374,24.543565 L73.4615163,24.543565 L73.4615163,38.4528282 L68.0695303,38.4528282 L68.0695303,24.543565 L66.0432426,24.543565 L66.0432426,20.4566457 L68.0695303,20.4566457 L68.0695303,19.4950176 C68.0695303,15.1333474 71.1948216,14 74.9383023,14 L75.7625549,14 L75.7625549,18.0525755 C73.8049549,18.0525755 73.4615163,18.4303579 73.4615163,20.4566457 L83.4899234,20.4566457 L83.4899234,38.4528282 L78.0979374,38.4184844 L78.0979374,38.4184844 Z M78.0979374,18.5333895 L78.0979374,14.4464702 L83.4899234,14.4464702 L83.4899234,18.5333895 L78.0979374,18.5333895 Z" id="Shape"></path>
                <path d="M102.516422,42.196309 C100.730541,45.2185686 96.6779656,46.4549476 93.4152989,46.4549476 C90.3586954,46.4549476 87.3364357,45.5276634 85.550555,42.91753 C84.9667094,42.0589335 84.5889269,41.1316493 84.4515515,40.1356774 L90.6677901,40.1356774 C91.2516357,41.4407441 92.4880147,41.9215581 93.8274252,41.9215581 C96.7809972,41.9215581 98.1890954,39.8952704 98.1890954,37.04473 L98.1890954,36.4952282 L98.1204077,36.4952282 C97.1931235,38.2467651 95.0981481,39.0710177 93.2092358,39.0710177 C87.8172498,39.0710177 84.1424567,34.846723 84.1424567,29.5921124 C84.1424567,24.303158 87.748562,19.9071439 93.2092358,19.9071439 C95.0638042,19.9071439 97.1244358,20.5253334 98.1547516,22.1738387 L98.2234393,22.1738387 L98.2234393,20.4909895 L103.615425,20.4909895 L103.615425,36.2891651 C103.581081,38.2811089 103.546738,40.4104283 102.516422,42.196309 Z M93.8274252,24.8870036 C91.3203235,24.8870036 89.5000989,26.9132913 89.5000989,29.3517054 C89.5000989,31.8588071 91.2172919,33.9881265 93.7930814,33.9881265 C96.3688709,33.9881265 98.1890954,32.0992142 98.1890954,29.5234247 C98.1890954,26.9476352 96.5062463,24.8870036 93.8274252,24.8870036 Z" id="Shape"></path>
                <path d="M116.11659,38.4184844 L116.11659,28.6648282 C116.11659,26.7072282 115.567089,24.9213474 113.231706,24.9213474 C110.896324,24.9213474 110.209446,26.4324773 110.209446,28.4931089 L110.209446,38.4871721 L104.81746,38.4871721 L104.81746,14.4464702 L110.209446,14.4464702 L110.209446,22.1051509 L110.278134,22.1051509 C111.205418,20.4223018 113.094331,19.8384562 114.914555,19.8384562 C116.666092,19.8384562 118.658036,20.4566457 119.791383,21.8304001 C121.508576,23.8223439 121.474283,25.9516632 121.474283,28.4244212 L121.474283,38.4871721 L116.11659,38.4871721 L116.11659,38.4184844 L116.11659,38.4184844 Z" id="Path"></path>
                <path d="M129.235945,24.543565 L129.235945,38.4528282 L123.843959,38.4528282 L123.843959,24.543565 L121.54292,24.543565 L121.54292,20.4566457 L123.843959,20.4566457 L123.843959,14.4464702 L129.235945,14.4464702 L129.235945,20.4566457 L131.811734,20.4566457 L131.811734,24.543565 C131.811734,24.543565 129.235945,24.543565 129.235945,24.543565 Z" id="Path"></path>
                <path d="M139.264352,34.6063159 C139.264352,35.1214738 139.16132,35.6022879 138.955257,36.0831019 C138.749194,36.563916 138.474443,36.9760423 138.131005,37.285137 C137.787566,37.6285756 137.37544,37.9033265 136.928969,38.1093896 C136.482499,38.3154528 135.967341,38.4184844 135.452183,38.4184844 C134.937026,38.4184844 134.456211,38.3154528 133.975397,38.1093896 C133.494583,37.9033265 133.082457,37.6285756 132.773362,37.285137 C132.429924,36.9416984 132.155173,36.5295721 131.94911,36.0831019 C131.743047,35.6022879 131.640015,35.1214738 131.640015,34.6063159 C131.640015,34.091158 131.743047,33.610344 131.94911,33.12953 C132.155173,32.6487159 132.429924,32.2365896 132.773362,31.9274949 C133.116801,31.6184001 133.528927,31.3093054 133.975397,31.1032422 C134.421868,30.8971791 134.937026,30.7941475 135.452183,30.7941475 C135.967341,30.7941475 136.448155,30.8971791 136.928969,31.1032422 C137.409783,31.3093054 137.82191,31.5840563 138.131005,31.9274949 C138.474443,32.2709335 138.749194,32.6830598 138.955257,33.12953 C139.16132,33.5760001 139.264352,34.091158 139.264352,34.6063159 Z M135.452183,31.4810247 C135.040057,31.4810247 134.627931,31.5497124 134.250148,31.7214317 C133.872366,31.893151 133.528927,32.0992142 133.254176,32.373965 C132.979426,32.6487159 132.739019,32.9921545 132.601643,33.369937 C132.429924,33.7477194 132.361236,34.1598458 132.361236,34.5719721 C132.361236,34.9840984 132.429924,35.3962247 132.601643,35.7740072 C132.773362,36.1517896 132.979426,36.4952282 133.254176,36.7699791 C133.528927,37.04473 133.872366,37.285137 134.250148,37.4225124 C134.627931,37.5598879 135.040057,37.6629195 135.452183,37.6629195 C135.86431,37.6629195 136.276436,37.5942317 136.654219,37.4225124 C137.032001,37.2507932 137.37544,37.04473 137.65019,36.7699791 C137.924941,36.4952282 138.165348,36.1517896 138.302724,35.7740072 C138.440099,35.3962247 138.543131,34.9840984 138.543131,34.5719721 C138.543131,34.1598458 138.474443,33.7477194 138.302724,33.369937 C138.131005,32.9921545 137.924941,32.6487159 137.65019,32.373965 C137.37544,32.0992142 137.032001,31.8588071 136.654219,31.7214317 C136.276436,31.5497124 135.898654,31.4810247 135.452183,31.4810247 Z M136.31078,35.0184423 L137.169376,36.5982598 C137.20372,36.6326037 137.20372,36.7012914 137.169376,36.7356353 C137.135033,36.7699791 137.100689,36.804323 137.066345,36.804323 L136.413812,36.804323 C136.345124,36.804323 136.31078,36.7699791 136.31078,36.7356353 L135.486527,35.1901616 L134.833994,35.1901616 L134.833994,36.6669475 C134.833994,36.7012914 134.833994,36.7356353 134.79965,36.7699791 C134.765306,36.804323 134.730962,36.804323 134.696619,36.804323 L134.112773,36.804323 C134.078429,36.804323 134.044085,36.804323 134.009741,36.7699791 C133.975397,36.7356353 133.975397,36.7012914 133.975397,36.6669475 L133.975397,32.5800282 C133.975397,32.5456843 133.975397,32.5113405 134.009741,32.4769966 C134.044085,32.4426528 134.078429,32.4426528 134.112773,32.4426528 L135.349152,32.4426528 C135.726934,32.4426528 135.967341,32.4769966 136.173404,32.5456843 C136.413812,32.6487159 136.619875,32.7860914 136.75725,33.0264984 C136.894626,33.2325615 136.963313,33.5073124 136.963313,33.7820633 C136.963313,34.0568142 136.894626,34.2628773 136.791594,34.5032844 C136.654219,34.7093475 136.516843,34.8810668 136.31078,35.0184423 C136.276436,34.9497545 136.276436,34.9840984 136.31078,35.0184423 Z M136.070373,33.7820633 C136.070373,33.5416563 136.001685,33.369937 135.829966,33.2669054 C135.726934,33.2325615 135.555215,33.1982177 135.314808,33.1982177 L134.79965,33.1982177 L134.79965,34.4002528 L135.486527,34.4002528 C135.658247,34.4002528 135.829966,34.3315651 135.932997,34.2285335 C136.036029,34.1255019 136.070373,33.9881265 136.070373,33.7820633 Z" id="Shape"></path>
            </g>
        </g>
    </g>
</svg>