<?xml version="1.0" encoding="UTF-8"?>
<svg width="236px" height="60px" viewBox="0 0 236 60" version="1.1" xmlns="http://www.w3.org/2000/svg" xmlns:xlink="http://www.w3.org/1999/xlink">
    <!-- Generator: sketchtool 60.1 (101010) - https://sketch.com -->
    <title>F09406FA-2B00-4A79-AA4F-F59DC986C162</title>
    <desc>Created with sketchtool.</desc>
    <g id="Dizajn" stroke="none" stroke-width="1" fill="none" fill-rule="evenodd">
        <g id="About-Us" transform="translate(-480.000000, -6812.000000)" fill="#000000" fill-rule="nonzero">
            <g id="Mediatoolkit" transform="translate(480.000000, 6812.000000)">
                <path d="M39.0233333,13.6060307 C27.5982396,2.18093702 20.0311244,2.18093702 8.60603071,13.6060307 C-2.81906298,25.0311244 -2.81906298,32.5982396 8.53160983,44.0233333 C19.9567035,55.448427 27.5238187,55.448427 38.9489124,44.0233333 C50.3740061,32.5982396 50.3740061,25.0311244 39.0233333,13.6060307 Z M31.6050599,35.2684608 C29.8993333,34.823424 29.1566129,29.6303349 27.4508863,29.555914 C26.0413548,29.4814931 25.151281,32.8944347 23.8161704,32.8944347 C22.4066389,32.8944347 21.5165652,29.555914 20.1814546,29.555914 C18.4013071,29.6303349 17.6585867,34.823424 15.9528601,35.2684608 C15.3589815,35.4173026 14.0238709,35.3428817 14.0238709,33.7100876 C14.0238709,32.1517143 14.0238709,25.1784778 14.0238709,25.1784778 C14.0238709,25.1784778 14.0238709,25.1040569 14.0238709,25.029636 C14.0238709,24.9552151 14.0238709,24.9552151 14.0238709,24.8807942 L14.0238709,24.3613365 C14.0238709,23.2480001 14.9139446,22.2835055 16.1017019,22.2835055 L31.7553901,22.2835055 C32.8687264,22.2835055 33.8332211,23.1735792 33.8332211,24.3613365 L33.8332211,24.8807942 C33.8332211,24.9552151 33.8332211,24.9552151 33.8332211,25.029636 C33.8332211,25.1040569 33.8332211,25.1784778 33.8332211,25.2528986 C33.8332211,25.2528986 33.8332211,33.2650507 33.8332211,33.7845085 C33.6843793,35.3428817 32.2004269,35.4173026 31.6080367,35.2684608 L31.6050599,35.2684608 Z" id="Shape"></path>
                <polygon id="Path" points="86.8015391 37.3462919 82.6473655 37.3462919 82.6473655 21.6181828 77.5286973 35.3428817 73.1512611 35.3428817 68.0325929 21.7670246 68.0325929 37.3462919 63.8039984 37.3462919 63.8039984 16.5739355 69.8871612 16.5739355 75.303513 30.5963179 80.7198647 16.5739355 86.8030275 16.5739355 86.8030275 37.3462919"></polygon>
                <path d="M103.715917,30.1497926 C103.715917,30.5948295 103.715917,31.1142873 103.641496,31.4849032 L93.4026713,31.4849032 C93.8477082,33.5627342 95.2572397,34.452808 97.111808,34.452808 C98.3724977,34.452808 99.7090968,33.9333502 100.746524,33.0432765 L103.046129,35.5661444 C101.413335,37.0500967 99.3369924,37.7169078 96.8885454,37.7169078 C92.4366883,37.7169078 89.395851,34.7490031 89.395851,30.1497926 C89.395851,25.625003 92.3637558,22.5082565 96.6667711,22.5082565 C100.820945,22.5826774 103.640008,25.6235146 103.714429,30.1497926 L103.715917,30.1497926 Z M93.4041597,28.814682 L99.7850061,28.814682 C99.4143901,26.9601137 98.3010537,25.9211982 96.669748,25.9211982 C94.8151796,25.9211982 93.7762641,27.0345345 93.4056481,28.814682 L93.4041597,28.814682 Z" id="Shape"></path>
                <path d="M116.254347,24.4372458 L116.254347,15.9800568 L120.112326,15.9800568 L120.112326,37.3462919 L116.328768,37.3462919 L116.328768,35.7879186 C115.364273,36.9741874 114.029163,37.7169078 112.025753,37.7169078 C108.093353,37.7169078 105.052516,34.452808 105.052516,30.1497926 C105.052516,25.8467773 108.020421,22.5826774 112.025753,22.5826774 C113.954742,22.5826774 115.364273,23.3239094 116.254347,24.4372458 L116.254347,24.4372458 Z M109.057848,30.1497926 C109.057848,32.374977 110.467379,34.082192 112.766985,34.082192 C114.992169,34.082192 116.476121,32.3764654 116.476121,30.1497926 C116.476121,27.8501874 114.992169,26.2173933 112.766985,26.2173933 C110.467379,26.1429724 109.057848,27.9231199 109.057848,30.1497926 Z" id="Shape"></path>
                <path d="M127.753862,18.2052412 C127.753862,19.6147727 126.640525,20.6536882 125.305415,20.6536882 C123.895883,20.6536882 122.856968,19.6147727 122.856968,18.2052412 C122.856968,16.7957097 123.895883,15.6823733 125.305415,15.6823733 C126.640525,15.7567942 127.753862,16.8701306 127.753862,18.2052412 Z M127.234404,37.3462919 L123.376425,37.3462919 L123.376425,22.9532934 L127.234404,22.9532934 L127.234404,37.3462919 Z" id="Shape"></path>
                <path d="M144.593819,37.3462919 L140.810261,37.3462919 L140.810261,35.7879186 C139.845766,36.9741874 138.510656,37.7169078 136.507246,37.7169078 C132.574846,37.7169078 129.534009,34.452808 129.534009,30.1497926 C129.534009,25.8467773 132.501914,22.5826774 136.507246,22.5826774 C138.510656,22.5826774 139.845766,23.3983303 140.810261,24.5860875 L140.810261,23.0277143 L144.593819,23.0277143 L144.593819,37.3462919 Z M133.466409,30.1497926 C133.466409,32.374977 134.87594,34.082192 137.175545,34.082192 C139.40073,34.082192 140.884682,32.3764654 140.884682,30.1497926 C140.884682,27.8501874 139.40073,26.2173933 137.175545,26.2173933 C134.87594,26.1429724 133.466409,27.9231199 133.466409,30.1497926 Z" id="Shape"></path>
                <path d="M158.171164,26.366235 L152.978075,26.366235 L152.978075,31.633745 C152.978075,33.4138925 153.94257,34.082192 155.128839,34.082192 C156.018912,34.082192 157.057828,33.6371551 157.79906,33.1176974 L159.208591,36.160023 C157.947902,37.0500967 156.463949,37.6439754 154.460539,37.6439754 C150.898756,37.6439754 149.044187,35.6405653 149.044187,31.8570076 L149.044187,26.2933026 L146.299545,26.2933026 L146.299545,22.8803609 L149.044187,22.8803609 L149.044187,18.5773456 L152.902166,18.5773456 L152.902166,22.8803609 L158.095255,22.8803609 L158.095255,26.3677234 L158.171164,26.366235 Z" id="Path"></path>
                <path d="M175.234384,30.1497926 C175.234384,34.452808 171.895863,37.7169078 167.444006,37.7169078 C162.992149,37.7169078 159.653628,34.452808 159.653628,30.1497926 C159.653628,25.7723564 162.917728,22.5826774 167.444006,22.5826774 C171.895863,22.5826774 175.234384,25.7723564 175.234384,30.1497926 Z M163.587516,30.1497926 C163.587516,32.4493979 165.22031,34.082192 167.371074,34.082192 C169.521837,34.082192 171.229052,32.4493979 171.229052,30.1497926 C171.229052,27.8501874 169.596258,26.2173933 167.371074,26.2173933 C165.22031,26.1429724 163.587516,27.7757665 163.587516,30.1497926 Z" id="Shape"></path>
                <path d="M192.223183,30.1497926 C192.223183,34.452808 188.884662,37.7169078 184.432805,37.7169078 C179.980948,37.7169078 176.642427,34.452808 176.642427,30.1497926 C176.642427,25.7723564 179.906527,22.5826774 184.432805,22.5826774 C188.884662,22.5826774 192.223183,25.7723564 192.223183,30.1497926 Z M180.576315,30.1497926 C180.576315,32.4493979 182.209109,34.082192 184.359872,34.082192 C186.510636,34.082192 188.217851,32.4493979 188.217851,30.1497926 C188.217851,27.8501874 186.585057,26.2173933 184.359872,26.2173933 C182.209109,26.1429724 180.576315,27.7757665 180.576315,30.1497926 Z" id="Shape"></path>
                <polygon id="Path" points="198.382255 37.3462919 194.524276 37.3462919 194.524276 15.9800568 198.382255 15.9800568"></polygon>
                <polygon id="Path" points="205.429912 28.07345 206.765023 28.07345 210.844776 22.9547818 215.592828 22.9547818 209.880281 29.7062442 215.592828 37.3477803 210.844776 37.3477803 206.690602 31.4863917 205.355491 31.4863917 205.355491 37.3477803 201.497513 37.3477803 201.497513 15.9815452 205.355491 15.9815452 205.355491 28.0749385"></polygon>
                <path d="M221.305375,18.2052412 C221.305375,19.6147727 220.192038,20.6536882 218.856928,20.6536882 C217.447396,20.6536882 216.408481,19.6147727 216.408481,18.2052412 C216.408481,16.7957097 217.447396,15.6823733 218.856928,15.6823733 C220.266459,15.7567942 221.305375,16.8701306 221.305375,18.2052412 Z M220.785917,37.3462919 L216.927939,37.3462919 L216.927939,22.9532934 L220.785917,22.9532934 L220.785917,37.3462919 Z" id="Shape"></path>
                <path d="M234.437683,26.366235 L229.244594,26.366235 L229.244594,31.633745 C229.244594,33.4138925 230.209089,34.082192 231.395358,34.082192 C232.285432,34.082192 233.324347,33.6371551 234.065579,33.1176974 L235.475111,36.160023 C234.214421,37.0500967 232.730468,37.6439754 230.727058,37.6439754 C227.165275,37.6439754 225.310707,35.6405653 225.310707,31.8570076 L225.310707,26.2933026 L222.566064,26.2933026 L222.566064,22.8803609 L225.310707,22.8803609 L225.310707,18.5773456 L229.168685,18.5773456 L229.168685,22.8803609 L234.361774,22.8803609 L234.361774,26.3677234 L234.437683,26.366235 Z" id="Path"></path>
            </g>
        </g>
    </g>
</svg>